<svg xmlns="http://www.w3.org/2000/svg" viewBox="0 0 32 32">
  <path fill="#25D366" d="M16 0C7.163 0 0 7.163 0 16c0 2.837.74 5.506 2.03 7.87L0 32l8.26-2.03A15.94 15.94 0 0016 32c8.837 0 16-7.163 16-16S24.837 0 16 0z"/>
  <path fill="#FFF" d="M25.6 23.2c-.4.8-2.4 1.6-3.2 1.6-.8 0-1.6 0-2.4-.4-2.4-.8-4.8-2.4-6.4-4.8-1.6-2.4-2.4-4.8-2.4-7.2 0-1.6.8-2.4 1.6-3.2.4-.4.8-.4 1.6-.4.4 0 .8 0 1.2.4.4.4.8 1.2.8 1.6 0 .4 0 .8-.4 1.2-.4.4-.8.8-1.2 1.2-.4.4-.4.8-.4 1.2 0 .8.8 2 1.6 3.2s2.4 2.4 3.2 2.8c.4.4.8.4 1.2.4.4 0 .8 0 1.2-.4.4-.4.8-.4 1.2-.4.4 0 .8.4 1.2.8.4.4.8.8.8 1.2 0 .4 0 .8-.4 1.2z"/>
</svg>
